<svg width="328" height="76" viewBox="0 0 328 76" fill="none" xmlns="http://www.w3.org/2000/svg">
<rect width="328" height="76" fill="#1E1E1E"/>
<path d="M56.4545 0.373047H21.1392C9.90445 0.373047 0.796875 9.36079 0.796875 20.4477V55.2984C0.796875 66.3853 9.90445 75.373 21.1392 75.373H56.4545C67.6893 75.373 76.7969 66.3853 76.7969 55.2984V20.4477C76.7969 9.36079 67.6893 0.373047 56.4545 0.373047Z" fill="url(#paint0_linear_0_1)"/>
<path fill-rule="evenodd" clip-rule="evenodd" d="M34.7316 50.2317L54.6493 35.283C57.79 32.9259 57.7826 29.1035 54.6329 26.753C51.4964 24.4126 46.4275 24.4161 43.2971 26.7612L23.3603 41.6953C20.215 44.0514 20.213 47.8747 23.3559 50.2325C26.4974 52.5895 31.5907 52.5891 34.7316 50.2317ZM43.2695 31.0207L48.9596 35.2897L51.8048 33.1551C53.376 31.9763 53.376 30.0649 51.8048 28.8861C50.2334 27.7073 47.6859 27.7073 46.1147 28.8861L43.2695 31.0207Z" fill="white"/>
<path d="M132.694 41H126.311L134.602 16.4258H142.51L150.801 41H144.418L138.646 22.6174H138.454L132.694 41ZM131.842 31.3287H145.185V35.8404H131.842V31.3287ZM159.386 16.4258V41H153.447V16.4258H159.386ZM163.115 41V16.4258H179.89V21.2495H169.055V26.2891H178.822V31.1247H169.055V41H163.115ZM193.617 33.0446V22.5694H199.472V41H193.881V37.5683H193.689C193.281 38.6962 192.585 39.5921 191.601 40.2561C190.625 40.912 189.445 41.24 188.061 41.24C186.805 41.24 185.701 40.952 184.749 40.376C183.798 39.8001 183.058 38.9961 182.53 37.9642C182.002 36.9243 181.734 35.7084 181.726 34.3165V22.5694H187.593V33.1646C187.601 34.1645 187.865 34.9525 188.385 35.5284C188.905 36.1044 189.613 36.3923 190.509 36.3923C191.093 36.3923 191.617 36.2644 192.081 36.0084C192.553 35.7444 192.925 35.3644 193.197 34.8685C193.477 34.3645 193.617 33.7565 193.617 33.0446ZM219.298 28.197L213.91 28.3409C213.854 27.957 213.702 27.617 213.454 27.321C213.206 27.017 212.882 26.7811 212.482 26.6131C212.09 26.4371 211.634 26.3491 211.115 26.3491C210.435 26.3491 209.855 26.4851 209.375 26.7571C208.903 27.029 208.671 27.397 208.679 27.861C208.671 28.221 208.815 28.5329 209.111 28.7969C209.415 29.0609 209.955 29.2729 210.731 29.4329L214.282 30.1048C216.122 30.4568 217.49 31.0407 218.386 31.8567C219.29 32.6726 219.746 33.7525 219.754 35.0964C219.746 36.3603 219.37 37.4603 218.626 38.3962C217.89 39.3321 216.882 40.0601 215.602 40.58C214.322 41.092 212.858 41.348 211.211 41.348C208.579 41.348 206.503 40.808 204.983 39.7281C203.471 38.6402 202.607 37.1843 202.391 35.3604L208.187 35.2164C208.315 35.8884 208.647 36.4003 209.183 36.7523C209.719 37.1043 210.403 37.2803 211.235 37.2803C211.986 37.2803 212.598 37.1403 213.07 36.8603C213.542 36.5803 213.782 36.2084 213.79 35.7444C213.782 35.3284 213.598 34.9964 213.238 34.7485C212.878 34.4925 212.314 34.2925 211.546 34.1485L208.331 33.5366C206.483 33.2006 205.107 32.5806 204.203 31.6767C203.299 30.7648 202.851 29.6049 202.859 28.197C202.851 26.965 203.179 25.9131 203.843 25.0412C204.507 24.1613 205.451 23.4893 206.675 23.0253C207.899 22.5614 209.343 22.3294 211.007 22.3294C213.502 22.3294 215.47 22.8534 216.91 23.9013C218.35 24.9412 219.146 26.3731 219.298 28.197ZM222.643 41V22.5694H228.51V41H222.643ZM225.582 20.4215C224.758 20.4215 224.051 20.1496 223.459 19.6056C222.867 19.0536 222.571 18.3897 222.571 17.6137C222.571 16.8458 222.867 16.1899 223.459 15.6459C224.051 15.0939 224.758 14.818 225.582 14.818C226.414 14.818 227.122 15.0939 227.706 15.6459C228.298 16.1899 228.594 16.8458 228.594 17.6137C228.594 18.3897 228.298 19.0536 227.706 19.6056C227.122 20.1496 226.414 20.4215 225.582 20.4215ZM240.848 41.348C238.912 41.348 237.249 40.952 235.857 40.1601C234.473 39.3601 233.405 38.2482 232.653 36.8243C231.909 35.3924 231.537 33.7325 231.537 31.8447C231.537 29.9488 231.909 28.2889 232.653 26.8651C233.405 25.4332 234.473 24.3212 235.857 23.5293C237.249 22.7294 238.912 22.3294 240.848 22.3294C242.784 22.3294 244.444 22.7294 245.828 23.5293C247.22 24.3212 248.288 25.4332 249.032 26.8651C249.784 28.2889 250.16 29.9488 250.16 31.8447C250.16 33.7325 249.784 35.3924 249.032 36.8243C248.288 38.2482 247.22 39.3601 245.828 40.1601C244.444 40.952 242.784 41.348 240.848 41.348ZM240.884 36.9203C241.588 36.9203 242.184 36.7043 242.672 36.2724C243.16 35.8404 243.532 35.2404 243.788 34.4725C244.052 33.7045 244.184 32.8166 244.184 31.8087C244.184 30.7848 244.052 29.8888 243.788 29.1209C243.532 28.3529 243.16 27.753 242.672 27.321C242.184 26.8891 241.588 26.6731 240.884 26.6731C240.156 26.6731 239.54 26.8891 239.036 27.321C238.54 27.753 238.16 28.3529 237.897 29.1209C237.641 29.8888 237.513 30.7848 237.513 31.8087C237.513 32.8166 237.641 33.7045 237.897 34.4725C238.16 35.2404 238.54 35.8404 239.036 36.2724C239.54 36.7043 240.156 36.9203 240.884 36.9203ZM259.033 30.4888V41H253.165V22.5694H258.745V25.9531H258.949C259.357 24.8252 260.053 23.9413 261.037 23.3013C262.021 22.6534 263.193 22.3294 264.553 22.3294C265.848 22.3294 266.972 22.6214 267.924 23.2053C268.884 23.7813 269.628 24.5892 270.156 25.6291C270.692 26.6611 270.956 27.869 270.948 29.2529V41H265.08V30.4048C265.088 29.3809 264.829 28.5809 264.301 28.005C263.781 27.429 263.057 27.141 262.129 27.141C261.513 27.141 260.969 27.277 260.497 27.549C260.033 27.813 259.673 28.193 259.417 28.6889C259.169 29.1849 259.041 29.7848 259.033 30.4888Z" fill="white"/>
<path d="M92.2695 65H91.3647L94.804 55.5455H95.7273L99.1665 65H98.2617L95.2979 56.6673H95.2333L92.2695 65ZM92.9205 61.3761H97.6108V62.1516H92.9205V61.3761ZM101.65 55.5455V65H100.787V55.5455H101.65ZM107.82 59.8849V60.6605H103.887V59.8849H107.82ZM110.055 65V55.5455H113.106C113.777 55.5455 114.337 55.6747 114.786 55.9332C115.239 56.1887 115.579 56.5365 115.807 56.9766C116.037 57.4167 116.153 57.9122 116.153 58.4631C116.153 59.014 116.039 59.511 115.811 59.9542C115.584 60.3943 115.245 60.7436 114.796 61.0021C114.346 61.2576 113.788 61.3853 113.12 61.3853H110.719V60.6097H113.097C113.592 60.6097 114.003 60.5174 114.329 60.3327C114.656 60.145 114.899 59.8896 115.059 59.5664C115.222 59.2433 115.303 58.8755 115.303 58.4631C115.303 58.0507 115.222 57.6829 115.059 57.3597C114.899 57.0366 114.654 56.7827 114.325 56.598C113.999 56.4134 113.585 56.321 113.083 56.321H110.918V65H110.055ZM120.689 65.1477C120.076 65.1477 119.534 64.9923 119.064 64.6815C118.596 64.3706 118.23 63.9413 117.965 63.3935C117.7 62.8426 117.568 62.207 117.568 61.4869C117.568 60.7605 117.7 60.1219 117.965 59.571C118.23 59.017 118.596 58.5862 119.064 58.2784C119.534 57.9676 120.076 57.8121 120.689 57.8121C121.301 57.8121 121.841 57.9676 122.309 58.2784C122.777 58.5893 123.143 59.0201 123.408 59.571C123.675 60.1219 123.809 60.7605 123.809 61.4869C123.809 62.207 123.677 62.8426 123.412 63.3935C123.148 63.9413 122.78 64.3706 122.309 64.6815C121.841 64.9923 121.301 65.1477 120.689 65.1477ZM120.689 64.3952C121.181 64.3952 121.598 64.2629 121.94 63.9982C122.281 63.7335 122.54 63.3812 122.715 62.9411C122.894 62.5009 122.983 62.0162 122.983 61.4869C122.983 60.9575 122.894 60.4712 122.715 60.0281C122.54 59.5849 122.281 59.2294 121.94 58.9616C121.598 58.6939 121.181 58.56 120.689 58.56C120.199 58.56 119.782 58.6939 119.438 58.9616C119.096 59.2294 118.836 59.5849 118.657 60.0281C118.482 60.4712 118.394 60.9575 118.394 61.4869C118.394 62.0162 118.482 62.5009 118.657 62.9411C118.836 63.3812 119.096 63.7335 119.438 63.9982C119.779 64.2629 120.196 64.3952 120.689 64.3952ZM126.946 65L124.804 57.9091H125.672L127.352 63.7582H127.412L129.088 57.9091H129.961L131.623 63.7443H131.687L133.368 57.9091H134.236L132.094 65H131.244L129.564 59.1879H129.476L127.796 65H126.946ZM138.459 65.1477C137.797 65.1477 137.224 64.9938 136.741 64.6861C136.258 64.3752 135.884 63.9459 135.619 63.3981C135.358 62.8472 135.227 62.2132 135.227 61.4961C135.227 60.7821 135.358 60.1481 135.619 59.5941C135.884 59.037 136.249 58.6016 136.714 58.2876C137.181 57.9706 137.721 57.8121 138.334 57.8121C138.719 57.8121 139.089 57.8829 139.446 58.0245C139.803 58.163 140.124 58.3769 140.407 58.6662C140.693 58.9524 140.919 59.314 141.085 59.7511C141.252 60.185 141.335 60.699 141.335 61.293V61.6992H135.795V60.9744H140.494C140.494 60.5189 140.402 60.1096 140.217 59.7464C140.036 59.3802 139.782 59.0909 139.456 58.8786C139.133 58.6662 138.759 58.56 138.334 58.56C137.885 58.56 137.489 58.68 137.147 58.9201C136.806 59.1602 136.538 59.4772 136.344 59.8711C136.153 60.265 136.056 60.6959 136.053 61.1637V61.5977C136.053 62.1609 136.15 62.6533 136.344 63.0749C136.541 63.4935 136.82 63.8182 137.18 64.049C137.54 64.2798 137.966 64.3952 138.459 64.3952C138.794 64.3952 139.088 64.3429 139.34 64.2383C139.596 64.1336 139.81 63.9936 139.982 63.8182C140.157 63.6397 140.29 63.4442 140.379 63.2319L141.159 63.4858C141.051 63.7843 140.874 64.0598 140.628 64.3121C140.385 64.5645 140.08 64.7676 139.714 64.9215C139.351 65.0723 138.932 65.1477 138.459 65.1477ZM143.145 65V57.9091H143.944V58.9986H144.004C144.146 58.6416 144.392 58.3538 144.743 58.1353C145.097 57.9137 145.497 57.8029 145.943 57.8029C146.011 57.8029 146.086 57.8045 146.169 57.8075C146.252 57.8106 146.322 57.8137 146.377 57.8168V58.6523C146.34 58.6462 146.275 58.637 146.183 58.6246C146.091 58.6123 145.991 58.6062 145.883 58.6062C145.514 58.6062 145.184 58.6847 144.895 58.8416C144.609 58.9955 144.383 59.2094 144.216 59.4833C144.05 59.7572 143.967 60.0696 143.967 60.4205V65H143.145ZM150.43 65.1477C149.769 65.1477 149.196 64.9938 148.713 64.6861C148.23 64.3752 147.856 63.9459 147.591 63.3981C147.329 62.8472 147.199 62.2132 147.199 61.4961C147.199 60.7821 147.329 60.1481 147.591 59.5941C147.856 59.037 148.22 58.6016 148.685 58.2876C149.153 57.9706 149.693 57.8121 150.306 57.8121C150.69 57.8121 151.061 57.8829 151.418 58.0245C151.775 58.163 152.095 58.3769 152.378 58.6662C152.665 58.9524 152.891 59.314 153.057 59.7511C153.223 60.185 153.306 60.699 153.306 61.293V61.6992H147.767V60.9744H152.466C152.466 60.5189 152.374 60.1096 152.189 59.7464C152.008 59.3802 151.754 59.0909 151.427 58.8786C151.104 58.6662 150.73 58.56 150.306 58.56C149.856 58.56 149.461 58.68 149.119 58.9201C148.778 59.1602 148.51 59.4772 148.316 59.8711C148.125 60.265 148.028 60.6959 148.025 61.1637V61.5977C148.025 62.1609 148.122 62.6533 148.316 63.0749C148.513 63.4935 148.791 63.8182 149.151 64.049C149.512 64.2798 149.938 64.3952 150.43 64.3952C150.766 64.3952 151.06 64.3429 151.312 64.2383C151.567 64.1336 151.781 63.9936 151.954 63.8182C152.129 63.6397 152.261 63.4442 152.351 63.2319L153.131 63.4858C153.023 63.7843 152.846 64.0598 152.6 64.3121C152.357 64.5645 152.052 64.7676 151.686 64.9215C151.323 65.0723 150.904 65.1477 150.43 65.1477ZM157.67 65.1477C157.088 65.1477 156.579 64.9938 156.142 64.6861C155.705 64.3783 155.363 63.949 155.117 63.3981C154.874 62.8472 154.752 62.2055 154.752 61.473C154.752 60.7436 154.874 60.105 155.117 59.5572C155.363 59.0063 155.706 58.5785 156.147 58.2738C156.587 57.966 157.099 57.8121 157.684 57.8121C158.115 57.8121 158.473 57.8891 158.759 58.043C159.046 58.1938 159.275 58.3815 159.447 58.6062C159.62 58.8308 159.754 59.0494 159.849 59.2617H159.923V55.5455H160.749V65H159.946V63.6843H159.849C159.754 63.8997 159.618 64.1213 159.443 64.3491C159.267 64.5737 159.035 64.763 158.746 64.9169C158.459 65.0708 158.101 65.1477 157.67 65.1477ZM157.767 64.3952C158.226 64.3952 158.616 64.2706 158.94 64.0213C159.263 63.7689 159.509 63.4227 159.678 62.9826C159.851 62.5394 159.937 62.0316 159.937 61.4592C159.937 60.8929 159.852 60.3928 159.683 59.9588C159.514 59.5218 159.267 59.1802 158.944 58.9339C158.621 58.6847 158.229 58.56 157.767 58.56C157.293 58.56 156.893 58.6893 156.567 58.9478C156.244 59.2032 155.997 59.5495 155.828 59.9865C155.662 60.4235 155.579 60.9144 155.579 61.4592C155.579 62.0101 155.663 62.5071 155.833 62.9503C156.002 63.3935 156.248 63.7459 156.571 64.0075C156.898 64.266 157.296 64.3952 157.767 64.3952ZM166.344 56.321V55.5455H173.2V56.321H170.204V65H169.34V56.321H166.344ZM176.811 65.1477C176.149 65.1477 175.577 64.9938 175.094 64.6861C174.611 64.3752 174.237 63.9459 173.972 63.3981C173.71 62.8472 173.58 62.2132 173.58 61.4961C173.58 60.7821 173.71 60.1481 173.972 59.5941C174.237 59.037 174.601 58.6016 175.066 58.2876C175.534 57.9706 176.074 57.8121 176.686 57.8121C177.071 57.8121 177.442 57.8829 177.799 58.0245C178.156 58.163 178.476 58.3769 178.759 58.6662C179.045 58.9524 179.272 59.314 179.438 59.7511C179.604 60.185 179.687 60.699 179.687 61.293V61.6992H174.147V60.9744H178.847C178.847 60.5189 178.755 60.1096 178.57 59.7464C178.388 59.3802 178.134 59.0909 177.808 58.8786C177.485 58.6662 177.111 58.56 176.686 58.56C176.237 58.56 175.842 58.68 175.5 58.9201C175.158 59.1602 174.891 59.4772 174.697 59.8711C174.506 60.265 174.409 60.6959 174.406 61.1637V61.5977C174.406 62.1609 174.503 62.6533 174.697 63.0749C174.894 63.4935 175.172 63.8182 175.532 64.049C175.892 64.2798 176.319 64.3952 176.811 64.3952C177.147 64.3952 177.44 64.3429 177.693 64.2383C177.948 64.1336 178.162 63.9936 178.335 63.8182C178.51 63.6397 178.642 63.4442 178.732 63.2319L179.512 63.4858C179.404 63.7843 179.227 64.0598 178.981 64.3121C178.738 64.5645 178.433 64.7676 178.067 64.9215C177.704 65.0723 177.285 65.1477 176.811 65.1477ZM181.815 57.9091L183.643 60.9329L185.472 57.9091H186.427L184.147 61.4545L186.427 65H185.472L183.643 62.0732L181.815 65H180.864L183.117 61.4545L180.864 57.9091H181.815ZM190.943 57.9091V58.6246H187.559V57.9091H190.943ZM188.617 56.2102H189.443V63.1488C189.443 63.4442 189.494 63.6766 189.595 63.8459C189.697 64.0121 189.829 64.1306 189.992 64.2013C190.155 64.2691 190.329 64.3029 190.514 64.3029C190.622 64.3029 190.714 64.2968 190.791 64.2844C190.868 64.2691 190.936 64.2537 190.994 64.2383L191.169 64.9815C191.089 65.0123 190.991 65.04 190.874 65.0646C190.757 65.0923 190.612 65.1062 190.44 65.1062C190.138 65.1062 189.848 65.04 189.568 64.9077C189.291 64.7753 189.063 64.5784 188.884 64.3168C188.706 64.0552 188.617 63.7305 188.617 63.3427V56.2102ZM198.446 65.1616C198.018 65.1616 197.628 65.0785 197.274 64.9123C196.92 64.743 196.638 64.4999 196.429 64.1829C196.22 63.8628 196.115 63.475 196.115 63.0195C196.115 62.6687 196.181 62.3732 196.313 62.1332C196.446 61.8931 196.633 61.6961 196.877 61.5423C197.12 61.3884 197.407 61.2668 197.74 61.1776C198.072 61.0883 198.439 61.0191 198.839 60.9698C199.236 60.9206 199.571 60.8775 199.845 60.8406C200.122 60.8036 200.333 60.7451 200.477 60.6651C200.622 60.5851 200.694 60.4558 200.694 60.2773V60.1112C200.694 59.628 200.55 59.2479 200.26 58.9709C199.974 58.6908 199.562 58.5508 199.023 58.5508C198.512 58.5508 198.095 58.6631 197.772 58.8878C197.452 59.1125 197.227 59.3771 197.098 59.6818L196.318 59.4002C196.478 59.0124 196.7 58.7031 196.983 58.4723C197.266 58.2384 197.583 58.0707 197.934 57.9691C198.285 57.8645 198.64 57.8121 199 57.8121C199.271 57.8121 199.553 57.8475 199.845 57.9183C200.14 57.9891 200.414 58.1122 200.667 58.2876C200.919 58.46 201.124 58.7016 201.281 59.0124C201.438 59.3202 201.516 59.7111 201.516 60.185V65H200.694V63.8782H200.644C200.545 64.0875 200.399 64.2906 200.205 64.4876C200.011 64.6845 199.768 64.8461 199.476 64.9723C199.183 65.0985 198.84 65.1616 198.446 65.1616ZM198.557 64.4091C198.994 64.4091 199.373 64.3121 199.693 64.1183C200.013 63.9244 200.259 63.6674 200.431 63.3473C200.607 63.0241 200.694 62.6687 200.694 62.2809V61.256C200.633 61.3145 200.53 61.3668 200.385 61.413C200.244 61.4592 200.079 61.5007 199.891 61.5376C199.706 61.5715 199.522 61.6007 199.337 61.6254C199.153 61.65 198.986 61.6715 198.839 61.69C198.439 61.7392 198.097 61.8162 197.814 61.9208C197.531 62.0254 197.314 62.1701 197.163 62.3548C197.012 62.5363 196.937 62.7702 196.937 63.0565C196.937 63.4873 197.09 63.8213 197.398 64.0582C197.706 64.2921 198.092 64.4091 198.557 64.4091ZM204.524 60.5682V65H203.702V57.9091H204.501V59.0217H204.575C204.741 58.6585 204.999 58.3677 205.35 58.1491C205.704 57.9276 206.141 57.8168 206.661 57.8168C207.138 57.8168 207.557 57.9168 207.917 58.1168C208.28 58.3138 208.562 58.6046 208.762 58.9893C208.965 59.3741 209.066 59.8465 209.066 60.4066V65H208.245V60.4574C208.245 59.8757 208.082 59.4156 207.755 59.0771C207.432 58.7385 206.998 58.5692 206.453 58.5692C206.081 58.5692 205.75 58.6493 205.461 58.8093C205.172 58.9693 204.942 59.2002 204.773 59.5018C204.607 59.8003 204.524 60.1558 204.524 60.5682ZM213.783 65.1477C213.202 65.1477 212.692 64.9938 212.255 64.6861C211.818 64.3783 211.477 63.949 211.23 63.3981C210.987 62.8472 210.866 62.2055 210.866 61.473C210.866 60.7436 210.987 60.105 211.23 59.5572C211.477 59.0063 211.82 58.5785 212.26 58.2738C212.7 57.966 213.212 57.8121 213.797 57.8121C214.228 57.8121 214.587 57.8891 214.873 58.043C215.159 58.1938 215.388 58.3815 215.561 58.6062C215.733 58.8308 215.867 59.0494 215.962 59.2617H216.036V55.5455H216.862V65H216.059V63.6843H215.962C215.867 63.8997 215.731 64.1213 215.556 64.3491C215.381 64.5737 215.148 64.763 214.859 64.9169C214.573 65.0708 214.214 65.1477 213.783 65.1477ZM213.88 64.3952C214.339 64.3952 214.73 64.2706 215.053 64.0213C215.376 63.7689 215.622 63.4227 215.791 62.9826C215.964 62.5394 216.05 62.0316 216.05 61.4592C216.05 60.8929 215.965 60.3928 215.796 59.9588C215.627 59.5218 215.381 59.1802 215.057 58.9339C214.734 58.6847 214.342 58.56 213.88 58.56C213.406 58.56 213.006 58.6893 212.68 58.9478C212.357 59.2032 212.111 59.5495 211.941 59.9865C211.775 60.4235 211.692 60.9144 211.692 61.4592C211.692 62.0101 211.777 62.5071 211.946 62.9503C212.115 63.3935 212.361 63.7459 212.685 64.0075C213.011 64.266 213.409 64.3952 213.88 64.3952ZM223.044 55.5455L225.998 63.8782H226.082L229.036 55.5455H229.941L226.502 65H225.578L222.139 55.5455H223.044ZM231.4 65V57.9091H232.226V65H231.4ZM231.82 56.6903C231.651 56.6903 231.506 56.6334 231.386 56.5195C231.266 56.4026 231.206 56.2625 231.206 56.0994C231.206 55.9363 231.266 55.7978 231.386 55.6839C231.506 55.567 231.651 55.5085 231.82 55.5085C231.989 55.5085 232.134 55.567 232.254 55.6839C232.374 55.7978 232.434 55.9363 232.434 56.0994C232.434 56.2625 232.374 56.4026 232.254 56.5195C232.134 56.6334 231.989 56.6903 231.82 56.6903ZM239.164 59.4648L238.411 59.6772C238.337 59.4648 238.233 59.2725 238.097 59.1001C237.962 58.9278 237.785 58.7908 237.566 58.6893C237.351 58.5877 237.083 58.5369 236.763 58.5369C236.283 58.5369 235.889 58.6508 235.581 58.8786C235.273 59.1063 235.119 59.4002 235.119 59.7603C235.119 60.065 235.224 60.3127 235.433 60.5036C235.646 60.6913 235.972 60.8406 236.412 60.9513L237.483 61.2145C238.077 61.3591 238.522 61.5884 238.817 61.9023C239.116 62.2163 239.265 62.6102 239.265 63.0842C239.265 63.4843 239.154 63.8397 238.933 64.1506C238.711 64.4614 238.402 64.7061 238.005 64.8846C237.611 65.06 237.154 65.1477 236.634 65.1477C235.941 65.1477 235.37 64.9923 234.921 64.6815C234.472 64.3675 234.184 63.9151 234.058 63.3242L234.847 63.1303C234.949 63.552 235.147 63.8705 235.443 64.0859C235.741 64.3014 236.134 64.4091 236.62 64.4091C237.165 64.4091 237.6 64.2875 237.926 64.0444C238.253 63.7982 238.416 63.4904 238.416 63.1211C238.416 62.8349 238.32 62.5948 238.129 62.4009C237.939 62.204 237.649 62.0593 237.262 61.967L236.103 61.69C235.487 61.5423 235.032 61.3084 234.736 60.9883C234.441 60.6682 234.293 60.2712 234.293 59.7972C234.293 59.4064 234.399 59.0632 234.612 58.7678C234.824 58.4692 235.116 58.2353 235.489 58.0661C235.861 57.8968 236.286 57.8121 236.763 57.8121C237.412 57.8121 237.931 57.9599 238.319 58.2553C238.71 58.5477 238.991 58.9509 239.164 59.4648ZM245.57 62.2901V57.9091H246.392V65H245.57V63.8228H245.505C245.339 64.186 245.076 64.4891 244.716 64.7322C244.356 64.9723 243.916 65.0923 243.396 65.0923C242.943 65.0923 242.542 64.9938 242.191 64.7969C241.84 64.5968 241.564 64.3045 241.364 63.9197C241.164 63.535 241.064 63.0626 241.064 62.5025V57.9091H241.886V62.4517C241.886 63.0057 242.049 63.4519 242.375 63.7905C242.702 64.1259 243.12 64.2937 243.631 64.2937C243.951 64.2937 244.259 64.2167 244.554 64.0629C244.85 63.909 245.093 63.6843 245.284 63.3888C245.475 63.0903 245.57 62.7241 245.57 62.2901ZM250.548 65.1616C250.12 65.1616 249.729 65.0785 249.375 64.9123C249.021 64.743 248.74 64.4999 248.53 64.1829C248.321 63.8628 248.216 63.475 248.216 63.0195C248.216 62.6687 248.283 62.3732 248.415 62.1332C248.547 61.8931 248.735 61.6961 248.978 61.5423C249.221 61.3884 249.509 61.2668 249.841 61.1776C250.174 61.0883 250.54 61.0191 250.94 60.9698C251.337 60.9206 251.673 60.8775 251.947 60.8406C252.224 60.8036 252.434 60.7451 252.579 60.6651C252.724 60.5851 252.796 60.4558 252.796 60.2773V60.1112C252.796 59.628 252.651 59.2479 252.362 58.9709C252.076 58.6908 251.663 58.5508 251.125 58.5508C250.614 58.5508 250.197 58.6631 249.874 58.8878C249.554 59.1125 249.329 59.3771 249.2 59.6818L248.42 59.4002C248.58 59.0124 248.801 58.7031 249.084 58.4723C249.367 58.2384 249.684 58.0707 250.035 57.9691C250.386 57.8645 250.742 57.8121 251.102 57.8121C251.373 57.8121 251.654 57.8475 251.947 57.9183C252.242 57.9891 252.516 58.1122 252.768 58.2876C253.021 58.46 253.225 58.7016 253.382 59.0124C253.539 59.3202 253.618 59.7111 253.618 60.185V65H252.796V63.8782H252.745C252.647 64.0875 252.501 64.2906 252.307 64.4876C252.113 64.6845 251.87 64.8461 251.577 64.9723C251.285 65.0985 250.942 65.1616 250.548 65.1616ZM250.659 64.4091C251.096 64.4091 251.474 64.3121 251.794 64.1183C252.114 63.9244 252.36 63.6674 252.533 63.3473C252.708 63.0241 252.796 62.6687 252.796 62.2809V61.256C252.734 61.3145 252.631 61.3668 252.487 61.413C252.345 61.4592 252.18 61.5007 251.993 61.5376C251.808 61.5715 251.623 61.6007 251.439 61.6254C251.254 61.65 251.088 61.6715 250.94 61.69C250.54 61.7392 250.198 61.8162 249.915 61.9208C249.632 62.0254 249.415 62.1701 249.264 62.3548C249.114 62.5363 249.038 62.7702 249.038 63.0565C249.038 63.4873 249.192 63.8213 249.5 64.0582C249.808 64.2921 250.194 64.4091 250.659 64.4091ZM256.625 55.5455V65H255.804V55.5455H256.625ZM269.168 58.5C269.082 58.1861 268.956 57.8922 268.79 57.6183C268.624 57.3413 268.417 57.0997 268.171 56.8935C267.928 56.6842 267.646 56.5211 267.326 56.4041C267.009 56.2872 266.655 56.2287 266.265 56.2287C265.649 56.2287 265.098 56.3887 264.612 56.7088C264.126 57.0289 263.741 57.4905 263.458 58.0938C263.178 58.697 263.038 59.4233 263.038 60.2727C263.038 61.1191 263.179 61.8439 263.462 62.4471C263.746 63.0503 264.133 63.5135 264.626 63.8366C265.121 64.1567 265.688 64.3168 266.325 64.3168C266.906 64.3168 267.42 64.1875 267.866 63.929C268.313 63.6705 268.661 63.3011 268.91 62.821C269.162 62.3409 269.285 61.77 269.279 61.1083L269.556 61.196H266.528V60.4205H270.119V61.196C270.119 62.0024 269.956 62.6995 269.63 63.2873C269.304 63.8751 268.856 64.3291 268.287 64.6491C267.717 64.9692 267.063 65.1293 266.325 65.1293C265.5 65.1293 264.778 64.9308 264.159 64.5337C263.541 64.1336 263.059 63.5704 262.714 62.8441C262.373 62.1147 262.202 61.2576 262.202 60.2727C262.202 59.531 262.301 58.8616 262.498 58.2646C262.694 57.6675 262.973 57.1566 263.333 56.7319C263.696 56.3072 264.126 55.9825 264.621 55.7578C265.117 55.5301 265.664 55.4162 266.265 55.4162C266.782 55.4162 267.254 55.4978 267.682 55.6609C268.113 55.824 268.491 56.0487 268.817 56.3349C269.147 56.618 269.416 56.9458 269.625 57.3182C269.838 57.6875 269.981 58.0814 270.055 58.5H269.168ZM274.959 65.1477C274.297 65.1477 273.724 64.9938 273.241 64.6861C272.758 64.3752 272.384 63.9459 272.119 63.3981C271.858 62.8472 271.727 62.2132 271.727 61.4961C271.727 60.7821 271.858 60.1481 272.119 59.5941C272.384 59.037 272.749 58.6016 273.214 58.2876C273.681 57.9706 274.221 57.8121 274.834 57.8121C275.219 57.8121 275.589 57.8829 275.946 58.0245C276.303 58.163 276.624 58.3769 276.907 58.6662C277.193 58.9524 277.419 59.314 277.585 59.7511C277.752 60.185 277.835 60.699 277.835 61.293V61.6992H272.295V60.9744H276.994C276.994 60.5189 276.902 60.1096 276.717 59.7464C276.536 59.3802 276.282 59.0909 275.956 58.8786C275.633 58.6662 275.259 58.56 274.834 58.56C274.385 58.56 273.989 58.68 273.647 58.9201C273.306 59.1602 273.038 59.4772 272.844 59.8711C272.653 60.265 272.556 60.6959 272.553 61.1637V61.5977C272.553 62.1609 272.65 62.6533 272.844 63.0749C273.041 63.4935 273.32 63.8182 273.68 64.049C274.04 64.2798 274.466 64.3952 274.959 64.3952C275.294 64.3952 275.588 64.3429 275.84 64.2383C276.096 64.1336 276.31 63.9936 276.482 63.8182C276.657 63.6397 276.79 63.4442 276.879 63.2319L277.659 63.4858C277.551 63.7843 277.374 64.0598 277.128 64.3121C276.885 64.5645 276.58 64.7676 276.214 64.9215C275.851 65.0723 275.432 65.1477 274.959 65.1477ZM280.467 60.5682V65H279.645V57.9091H280.444V59.0217H280.518C280.684 58.6585 280.943 58.3677 281.294 58.1491C281.647 57.9276 282.084 57.8168 282.605 57.8168C283.082 57.8168 283.5 57.9168 283.86 58.1168C284.223 58.3138 284.505 58.6046 284.705 58.9893C284.908 59.3741 285.01 59.8465 285.01 60.4066V65H284.188V60.4574C284.188 59.8757 284.025 59.4156 283.699 59.0771C283.376 58.7385 282.942 58.5692 282.397 58.5692C282.024 58.5692 281.694 58.6493 281.404 58.8093C281.115 58.9693 280.886 59.2002 280.716 59.5018C280.55 59.8003 280.467 60.1558 280.467 60.5682ZM290.041 65.1477C289.379 65.1477 288.806 64.9938 288.323 64.6861C287.84 64.3752 287.466 63.9459 287.201 63.3981C286.94 62.8472 286.809 62.2132 286.809 61.4961C286.809 60.7821 286.94 60.1481 287.201 59.5941C287.466 59.037 287.831 58.6016 288.296 58.2876C288.763 57.9706 289.303 57.8121 289.916 57.8121C290.301 57.8121 290.671 57.8829 291.028 58.0245C291.386 58.163 291.706 58.3769 291.989 58.6662C292.275 58.9524 292.501 59.314 292.667 59.7511C292.834 60.185 292.917 60.699 292.917 61.293V61.6992H287.377V60.9744H292.076C292.076 60.5189 291.984 60.1096 291.799 59.7464C291.618 59.3802 291.364 59.0909 291.038 58.8786C290.715 58.6662 290.341 58.56 289.916 58.56C289.467 58.56 289.071 58.68 288.729 58.9201C288.388 59.1602 288.12 59.4772 287.926 59.8711C287.735 60.265 287.638 60.6959 287.635 61.1637V61.5977C287.635 62.1609 287.732 62.6533 287.926 63.0749C288.123 63.4935 288.402 63.8182 288.762 64.049C289.122 64.2798 289.548 64.3952 290.041 64.3952C290.376 64.3952 290.67 64.3429 290.922 64.2383C291.178 64.1336 291.392 63.9936 291.564 63.8182C291.739 63.6397 291.872 63.4442 291.961 63.2319L292.741 63.4858C292.633 63.7843 292.457 64.0598 292.21 64.3121C291.967 64.5645 291.662 64.7676 291.296 64.9215C290.933 65.0723 290.515 65.1477 290.041 65.1477ZM294.727 65V57.9091H295.526V58.9986H295.586C295.728 58.6416 295.974 58.3538 296.325 58.1353C296.679 57.9137 297.079 57.8029 297.525 57.8029C297.593 57.8029 297.668 57.8045 297.751 57.8075C297.834 57.8106 297.904 57.8137 297.959 57.8168V58.6523C297.922 58.6462 297.857 58.637 297.765 58.6246C297.673 58.6123 297.573 58.6062 297.465 58.6062C297.096 58.6062 296.766 58.6847 296.477 58.8416C296.191 58.9955 295.965 59.2094 295.798 59.4833C295.632 59.7572 295.549 60.0696 295.549 60.4205V65H294.727ZM301.342 65.1616C300.914 65.1616 300.523 65.0785 300.169 64.9123C299.815 64.743 299.534 64.4999 299.324 64.1829C299.115 63.8628 299.01 63.475 299.01 63.0195C299.01 62.6687 299.077 62.3732 299.209 62.1332C299.341 61.8931 299.529 61.6961 299.772 61.5423C300.015 61.3884 300.303 61.2668 300.635 61.1776C300.968 61.0883 301.334 61.0191 301.734 60.9698C302.131 60.9206 302.467 60.8775 302.741 60.8406C303.017 60.8036 303.228 60.7451 303.373 60.6651C303.518 60.5851 303.59 60.4558 303.59 60.2773V60.1112C303.59 59.628 303.445 59.2479 303.156 58.9709C302.87 58.6908 302.457 58.5508 301.919 58.5508C301.408 58.5508 300.991 58.6631 300.668 58.8878C300.348 59.1125 300.123 59.3771 299.994 59.6818L299.214 59.4002C299.374 59.0124 299.595 58.7031 299.878 58.4723C300.161 58.2384 300.478 58.0707 300.829 57.9691C301.18 57.8645 301.536 57.8121 301.896 57.8121C302.167 57.8121 302.448 57.8475 302.741 57.9183C303.036 57.9891 303.31 58.1122 303.562 58.2876C303.815 58.46 304.019 58.7016 304.176 59.0124C304.333 59.3202 304.412 59.7111 304.412 60.185V65H303.59V63.8782H303.539C303.441 64.0875 303.294 64.2906 303.101 64.4876C302.907 64.6845 302.664 64.8461 302.371 64.9723C302.079 65.0985 301.736 65.1616 301.342 65.1616ZM301.453 64.4091C301.89 64.4091 302.268 64.3121 302.588 64.1183C302.908 63.9244 303.154 63.6674 303.327 63.3473C303.502 63.0241 303.59 62.6687 303.59 62.2809V61.256C303.528 61.3145 303.425 61.3668 303.281 61.413C303.139 61.4592 302.974 61.5007 302.787 61.5376C302.602 61.5715 302.417 61.6007 302.233 61.6254C302.048 61.65 301.882 61.6715 301.734 61.69C301.334 61.7392 300.992 61.8162 300.709 61.9208C300.426 62.0254 300.209 62.1701 300.058 62.3548C299.908 62.5363 299.832 62.7702 299.832 63.0565C299.832 63.4873 299.986 63.8213 300.294 64.0582C300.602 64.2921 300.988 64.4091 301.453 64.4091ZM309.391 57.9091V58.6246H306.007V57.9091H309.391ZM307.064 56.2102H307.89V63.1488C307.89 63.4442 307.941 63.6766 308.043 63.8459C308.144 64.0121 308.276 64.1306 308.44 64.2013C308.603 64.2691 308.777 64.3029 308.961 64.3029C309.069 64.3029 309.161 64.2968 309.238 64.2844C309.315 64.2691 309.383 64.2537 309.441 64.2383L309.617 64.9815C309.537 65.0123 309.438 65.04 309.321 65.0646C309.204 65.0923 309.06 65.1062 308.887 65.1062C308.586 65.1062 308.295 65.04 308.015 64.9077C307.738 64.7753 307.51 64.5784 307.332 64.3168C307.153 64.0552 307.064 63.7305 307.064 63.3427V56.2102ZM311.266 65V57.9091H312.092V65H311.266ZM311.686 56.6903C311.517 56.6903 311.372 56.6334 311.252 56.5195C311.132 56.4026 311.072 56.2625 311.072 56.0994C311.072 55.9363 311.132 55.7978 311.252 55.6839C311.372 55.567 311.517 55.5085 311.686 55.5085C311.855 55.5085 312 55.567 312.12 55.6839C312.24 55.7978 312.3 55.9363 312.3 56.0994C312.3 56.2625 312.24 56.4026 312.12 56.5195C312 56.6334 311.855 56.6903 311.686 56.6903ZM317.022 65.1477C316.409 65.1477 315.867 64.9923 315.397 64.6815C314.929 64.3706 314.563 63.9413 314.298 63.3935C314.033 62.8426 313.901 62.207 313.901 61.4869C313.901 60.7605 314.033 60.1219 314.298 59.571C314.563 59.017 314.929 58.5862 315.397 58.2784C315.867 57.9676 316.409 57.8121 317.022 57.8121C317.634 57.8121 318.174 57.9676 318.642 58.2784C319.11 58.5893 319.476 59.0201 319.741 59.571C320.008 60.1219 320.142 60.7605 320.142 61.4869C320.142 62.207 320.01 62.8426 319.745 63.3935C319.481 63.9413 319.113 64.3706 318.642 64.6815C318.174 64.9923 317.634 65.1477 317.022 65.1477ZM317.022 64.3952C317.514 64.3952 317.931 64.2629 318.273 63.9982C318.614 63.7335 318.873 63.3812 319.048 62.9411C319.227 62.5009 319.316 62.0162 319.316 61.4869C319.316 60.9575 319.227 60.4712 319.048 60.0281C318.873 59.5849 318.614 59.2294 318.273 58.9616C317.931 58.6939 317.514 58.56 317.022 58.56C316.532 58.56 316.115 58.6939 315.771 58.9616C315.429 59.2294 315.169 59.5849 314.99 60.0281C314.815 60.4712 314.727 60.9575 314.727 61.4869C314.727 62.0162 314.815 62.5009 314.99 62.9411C315.169 63.3812 315.429 63.7335 315.771 63.9982C316.112 64.2629 316.529 64.3952 317.022 64.3952ZM322.768 60.5682V65H321.946V57.9091H322.745V59.0217H322.819C322.985 58.6585 323.243 58.3677 323.594 58.1491C323.948 57.9276 324.385 57.8168 324.905 57.8168C325.382 57.8168 325.801 57.9168 326.161 58.1168C326.524 58.3138 326.806 58.6046 327.006 58.9893C327.209 59.3741 327.311 59.8465 327.311 60.4066V65H326.489V60.4574C326.489 59.8757 326.326 59.4156 325.999 59.0771C325.676 58.7385 325.242 58.5692 324.698 58.5692C324.325 58.5692 323.994 58.6493 323.705 58.8093C323.416 58.9693 323.186 59.2002 323.017 59.5018C322.851 59.8003 322.768 60.1558 322.768 60.5682Z" fill="#C49DED"/>
<defs>
<linearGradient id="paint0_linear_0_1" x1="86.9303" y1="27.8731" x2="-4.1807" y2="45.8253" gradientUnits="userSpaceOnUse">
<stop stop-color="#4080F6"/>
<stop offset="1" stop-color="#A356F7"/>
</linearGradient>
</defs>
</svg>
