<svg width="145" height="28" viewBox="0 0 145 28" fill="none" xmlns="http://www.w3.org/2000/svg">
<path d="M6.69438 27H0.310856L8.60224 2.42584H16.5096L24.801 27H18.4175L12.6459 8.61737H12.4539L6.69438 27ZM5.84244 17.3287H19.1854V21.8404H5.84244V17.3287ZM33.3864 2.42584V27H27.4468V2.42584H33.3864ZM37.1151 27V2.42584H53.8899V7.24948H43.0547V12.2891H52.8219V17.1247H43.0547V27H37.1151ZM67.6168 19.0446V8.56938H73.4724V27H67.8808V23.5683H67.6888C67.2809 24.6962 66.5849 25.5921 65.601 26.2561C64.625 26.912 63.4451 27.24 62.0612 27.24C60.8053 27.24 59.7014 26.952 58.7495 26.376C57.7976 25.8001 57.0576 24.9961 56.5297 23.9642C56.0017 22.9243 55.7337 21.7084 55.7257 20.3165V8.56938H61.5933V19.1646C61.6013 20.1645 61.8653 20.9525 62.3852 21.5284C62.9052 22.1044 63.6131 22.3923 64.5091 22.3923C65.093 22.3923 65.617 22.2644 66.0809 22.0084C66.5529 21.7444 66.9249 21.3644 67.1969 20.8685C67.4768 20.3645 67.6168 19.7565 67.6168 19.0446ZM93.2979 14.197L87.9103 14.3409C87.8543 13.957 87.7023 13.617 87.4543 13.321C87.2064 13.017 86.8824 12.7811 86.4824 12.6131C86.0904 12.4371 85.6345 12.3491 85.1145 12.3491C84.4346 12.3491 83.8546 12.4851 83.3746 12.7571C82.9027 13.029 82.6707 13.397 82.6787 13.861C82.6707 14.221 82.8147 14.5329 83.1107 14.7969C83.4146 15.0609 83.9546 15.2729 84.7305 15.4329L88.2823 16.1048C90.1221 16.4568 91.49 17.0407 92.386 17.8567C93.2899 18.6726 93.7459 19.7525 93.7539 21.0964C93.7459 22.3603 93.3699 23.4603 92.626 24.3962C91.89 25.3321 90.8821 26.0601 89.6022 26.58C88.3223 27.092 86.8584 27.348 85.2105 27.348C82.5787 27.348 80.5029 26.808 78.983 25.7281C77.4711 24.6402 76.6072 23.1843 76.3912 21.3604L82.1867 21.2164C82.3147 21.8884 82.6467 22.4003 83.1827 22.7523C83.7186 23.1043 84.4026 23.2803 85.2345 23.2803C85.9864 23.2803 86.5984 23.1403 87.0704 22.8603C87.5423 22.5803 87.7823 22.2084 87.7903 21.7444C87.7823 21.3284 87.5983 20.9964 87.2384 20.7485C86.8784 20.4925 86.3144 20.2925 85.5465 20.1485L82.3307 19.5366C80.4829 19.2006 79.107 18.5806 78.203 17.6767C77.2991 16.7648 76.8511 15.6049 76.8591 14.197C76.8511 12.965 77.1791 11.9131 77.8431 11.0412C78.507 10.1613 79.4509 9.48931 80.6748 9.02534C81.8988 8.56138 83.3426 8.3294 85.0065 8.3294C87.5023 8.3294 89.4702 8.85336 90.9101 9.90128C92.35 10.9412 93.1459 12.3731 93.2979 14.197ZM96.6427 27V8.56938H102.51V27H96.6427ZM99.5824 6.42154C98.7585 6.42154 98.0505 6.14956 97.4586 5.6056C96.8666 5.05364 96.5707 4.38969 96.5707 3.61375C96.5707 2.8458 96.8666 2.18985 97.4586 1.64589C98.0505 1.09394 98.7585 0.817955 99.5824 0.817955C100.414 0.817955 101.122 1.09394 101.706 1.64589C102.298 2.18985 102.594 2.8458 102.594 3.61375C102.594 4.38969 102.298 5.05364 101.706 5.6056C101.122 6.14956 100.414 6.42154 99.5824 6.42154ZM114.848 27.348C112.912 27.348 111.249 26.952 109.857 26.1601C108.473 25.3601 107.405 24.2482 106.653 22.8243C105.909 21.3924 105.537 19.7325 105.537 17.8447C105.537 15.9488 105.909 14.2889 106.653 12.8651C107.405 11.4332 108.473 10.3212 109.857 9.5293C111.249 8.72937 112.912 8.3294 114.848 8.3294C116.784 8.3294 118.444 8.72937 119.828 9.5293C121.22 10.3212 122.288 11.4332 123.032 12.8651C123.784 14.2889 124.16 15.9488 124.16 17.8447C124.16 19.7325 123.784 21.3924 123.032 22.8243C122.288 24.2482 121.22 25.3601 119.828 26.1601C118.444 26.952 116.784 27.348 114.848 27.348ZM114.884 22.9203C115.588 22.9203 116.184 22.7043 116.672 22.2724C117.16 21.8404 117.532 21.2404 117.788 20.4725C118.052 19.7045 118.184 18.8166 118.184 17.8087C118.184 16.7848 118.052 15.8888 117.788 15.1209C117.532 14.3529 117.16 13.753 116.672 13.321C116.184 12.8891 115.588 12.6731 114.884 12.6731C114.156 12.6731 113.54 12.8891 113.036 13.321C112.54 13.753 112.16 14.3529 111.897 15.1209C111.641 15.8888 111.513 16.7848 111.513 17.8087C111.513 18.8166 111.641 19.7045 111.897 20.4725C112.16 21.2404 112.54 21.8404 113.036 22.2724C113.54 22.7043 114.156 22.9203 114.884 22.9203ZM133.033 16.4888V27H127.165V8.56938H132.745V11.9531H132.949C133.357 10.8252 134.053 9.94127 135.037 9.30132C136.021 8.65337 137.193 8.3294 138.553 8.3294C139.848 8.3294 140.972 8.62137 141.924 9.20533C142.884 9.78129 143.628 10.5892 144.156 11.6291C144.692 12.6611 144.956 13.869 144.948 15.2529V27H139.08V16.4048C139.088 15.3809 138.829 14.5809 138.301 14.005C137.781 13.429 137.057 13.141 136.129 13.141C135.513 13.141 134.969 13.277 134.497 13.549C134.033 13.813 133.673 14.193 133.417 14.6889C133.169 15.1849 133.041 15.7848 133.033 16.4888Z" fill="white"/>
</svg>
